<svg xmlns="http://www.w3.org/2000/svg" xmlns:xlink="http://www.w3.org/1999/xlink" width="1440" zoomAndPan="magnify" viewBox="0 0 1080 1079.999946" height="1440" preserveAspectRatio="xMidYMid meet" version="1.0"><defs><g/><clipPath id="3e6bb9a333"><path d="M 18 54 L 1070 54 L 1070 1025.890625 L 18 1025.890625 Z M 18 54 " clip-rule="nonzero"/></clipPath></defs><g clip-path="url(#3e6bb9a333)"><path fill="#821b16" d="M 738.257812 54.40625 L 593.777344 171.96875 L 404.476562 230.25 C 375.847656 240.261719 351.652344 259.007812 334.191406 283.167969 L 237.179688 509.476562 L 305.550781 532.296875 C 342.609375 544.589844 383.925781 527.617188 401.476562 492.65625 L 449.03125 398.003906 L 733.074219 398.003906 C 830.554688 398.003906 909.871094 473.597656 917.738281 569.121094 L 1069.308594 427.28125 Z M 506.402344 491.109375 L 484.582031 534.480469 C 454.785156 593.789062 393.742188 629.40625 330.011719 629.40625 C 312.042969 629.40625 293.828125 626.589844 276.09375 620.675781 L 120.34375 568.757812 L 18.960938 675.320312 L 310.917969 1025.648438 L 379.925781 956.636719 L 686.519531 956.636719 C 763.519531 956.636719 826.179688 893.976562 826.179688 816.980469 L 826.179688 584.214844 C 826.179688 532.867188 784.421875 491.109375 733.074219 491.109375 Z M 506.402344 491.109375 " fill-opacity="1" fill-rule="nonzero"/></g><g fill="#ffffff" fill-opacity="1"><g transform="translate(592.183557, 875.778278)"><g><path d="M 64.25 3.140625 C 53.6875 3.140625 44.519531 1.195312 36.75 -2.6875 C 28.976562 -6.570312 23 -12.273438 18.8125 -19.796875 C 14.632812 -27.316406 12.546875 -36.351562 12.546875 -46.90625 C 12.546875 -56.675781 14.632812 -64.867188 18.8125 -71.484375 C 23 -78.109375 29.472656 -83.535156 38.234375 -87.765625 C 47.003906 -92.003906 58.460938 -95.269531 72.609375 -97.5625 C 82.472656 -99.15625 89.96875 -100.894531 95.09375 -102.78125 C 100.226562 -104.675781 103.691406 -106.816406 105.484375 -109.203125 C 107.273438 -111.597656 108.171875 -114.640625 108.171875 -118.328125 C 108.171875 -123.609375 106.328125 -127.640625 102.640625 -130.421875 C 98.953125 -133.210938 92.828125 -134.609375 84.265625 -134.609375 C 75.097656 -134.609375 66.378906 -132.566406 58.109375 -128.484375 C 49.847656 -124.398438 42.679688 -119.023438 36.609375 -112.359375 L 33.609375 -112.359375 L 16.28125 -138.5 C 24.644531 -147.757812 34.851562 -154.976562 46.90625 -160.15625 C 58.957031 -165.34375 72.109375 -167.9375 86.359375 -167.9375 C 108.171875 -167.9375 123.957031 -163.300781 133.71875 -154.03125 C 143.476562 -144.769531 148.359375 -131.625 148.359375 -114.59375 L 148.359375 -43.03125 C 148.359375 -35.65625 151.597656 -31.96875 158.078125 -31.96875 C 160.566406 -31.96875 163.003906 -32.414062 165.390625 -33.3125 L 167.484375 -32.71875 L 170.46875 -3.890625 C 168.175781 -2.390625 164.988281 -1.164062 160.90625 -0.21875 C 156.820312 0.71875 152.34375 1.1875 147.46875 1.1875 C 137.601562 1.1875 129.90625 -0.703125 124.375 -4.484375 C 118.851562 -8.265625 114.894531 -14.191406 112.5 -22.265625 L 109.359375 -22.5625 C 101.296875 -5.425781 86.257812 3.140625 64.25 3.140625 Z M 77.390625 -27.796875 C 86.953125 -27.796875 94.597656 -31.003906 100.328125 -37.421875 C 106.054688 -43.847656 108.921875 -52.789062 108.921875 -64.25 L 108.921875 -80.984375 L 106.078125 -81.578125 C 103.585938 -79.585938 100.320312 -77.914062 96.28125 -76.5625 C 92.25 -75.21875 86.453125 -73.898438 78.890625 -72.609375 C 69.921875 -71.117188 63.46875 -68.554688 59.53125 -64.921875 C 55.601562 -61.285156 53.640625 -56.128906 53.640625 -49.453125 C 53.640625 -42.378906 55.726562 -37 59.90625 -33.3125 C 64.09375 -29.632812 69.921875 -27.796875 77.390625 -27.796875 Z M 77.390625 -27.796875 "/></g></g></g></svg>