<svg xmlns="http://www.w3.org/2000/svg" xmlns:xlink="http://www.w3.org/1999/xlink" width="1440" zoomAndPan="magnify" viewBox="0 0 1080 1079.999946" height="1440" preserveAspectRatio="xMidYMid meet" version="1.0"><defs><clipPath id="f13734ff3a"><path d="M 308 63.074219 L 772 63.074219 L 772 558 L 308 558 Z M 308 63.074219 " clip-rule="nonzero"/></clipPath></defs><g clip-path="url(#f13734ff3a)"><path fill="#ffffff" d="M 540 557.847656 C 667.6875 557.847656 771.550781 422.324219 771.550781 294.648438 C 771.550781 166.96875 667.6875 63.074219 540 63.074219 C 412.308594 63.074219 308.4375 166.96875 308.4375 294.648438 C 308.457031 422.316406 412.320312 557.847656 540 557.847656 Z M 540 557.847656 " fill-opacity="1" fill-rule="nonzero"/></g><path fill="#ffffff" d="M 713.832031 560.21875 C 668.914062 594.441406 612.882812 614.800781 552.1875 614.800781 L 527.808594 614.800781 C 467.101562 614.800781 411.058594 594.433594 366.152344 560.21875 C 219.496094 583.929688 107.503906 711.046875 107.503906 864.382812 C 107.503906 948.617188 301.132812 1016.921875 540 1016.921875 C 778.851562 1016.921875 972.492188 948.617188 972.492188 864.382812 C 972.492188 711.046875 860.492188 583.929688 713.832031 560.21875 Z M 713.832031 560.21875 " fill-opacity="1" fill-rule="nonzero"/></svg>