<svg xmlns="http://www.w3.org/2000/svg" xmlns:xlink="http://www.w3.org/1999/xlink" width="1440" zoomAndPan="magnify" viewBox="0 0 1080 1079.999946" height="1440" preserveAspectRatio="xMidYMid meet" version="1.0"><path fill="#ffffff" d="M 884.902344 186 L 195.097656 186 C 117.292969 186 54 249.292969 54 327.097656 L 54 752.898438 C 54 830.703125 117.292969 893.996094 195.097656 893.996094 L 884.902344 893.996094 C 962.707031 893.996094 1026 830.703125 1026 752.898438 L 1026 327.097656 C 1026 249.292969 962.707031 186 884.902344 186 Z M 843.222656 280.066406 L 799.929688 314.242188 L 569.160156 496.414062 C 551.914062 509.894531 528.085938 509.894531 510.839844 496.414062 L 288.21875 320.515625 L 236.90625 280.066406 Z M 884.902344 799.929688 L 195.097656 799.929688 C 169.160156 799.929688 148.066406 778.832031 148.066406 752.898438 L 148.066406 330.066406 L 452.519531 570.410156 C 478.230469 590.792969 509.273438 600.828125 540 600.828125 C 570.726562 600.828125 601.769531 590.792969 627.480469 570.410156 L 931.933594 330.175781 L 931.933594 752.898438 C 931.933594 778.832031 910.839844 799.929688 884.902344 799.929688 Z M 884.902344 799.929688 " fill-opacity="1" fill-rule="nonzero"/></svg>