<svg xmlns="http://www.w3.org/2000/svg" xmlns:xlink="http://www.w3.org/1999/xlink" width="1440" zoomAndPan="magnify" viewBox="0 0 1080 1079.999946" height="1440" preserveAspectRatio="xMidYMid meet" version="1.0"><defs><clipPath id="c7509475bc"><path d="M 83 238 L 762 238 L 762 965.644531 L 83 965.644531 Z M 83 238 " clip-rule="nonzero"/></clipPath><clipPath id="d2ca313adb"><path d="M 696 114.394531 L 846 114.394531 L 846 282 L 696 282 Z M 696 114.394531 " clip-rule="nonzero"/></clipPath></defs><g clip-path="url(#c7509475bc)"><path fill="#ffffff" d="M 611.847656 275.222656 C 565.867188 239.160156 520.433594 228.882812 484.011719 246.375 C 469.949219 253.046875 458.410156 263.320312 449.214844 276.664062 L 251.421875 514.480469 L 163.4375 557.574219 L 137.113281 570.195312 C 90.414062 592.371094 70.582031 648.445312 92.757812 694.964844 L 108.984375 728.859375 C 119.804688 751.398438 138.734375 768.527344 162.175781 776.820312 C 171.007812 779.886719 179.84375 781.6875 188.859375 782.050781 L 254.308594 919.621094 C 268.191406 948.648438 297.21875 965.597656 327.332031 965.597656 C 338.871094 965.597656 350.769531 963.070312 361.949219 957.84375 L 374.75 951.714844 C 414.957031 932.601562 432.085938 884.28125 412.972656 844.074219 L 353.113281 718.402344 L 657.460938 714.796875 C 660.347656 714.976562 663.230469 715.15625 666.117188 715.15625 C 679.277344 715.15625 691.71875 712.453125 703.257812 706.863281 C 739.679688 689.554688 760.414062 647.726562 761.496094 589.308594 C 762.398438 537.019531 747.433594 475.535156 719.304688 416.578125 C 691.179688 357.621094 652.953125 307.496094 611.847656 275.222656 Z M 539.726562 565.6875 C 529.808594 550.542969 520.433594 533.773438 511.777344 515.5625 C 503.304688 497.894531 496.273438 480.042969 490.503906 462.375 C 514.121094 462.554688 536.480469 476.078125 547.117188 498.796875 C 558.117188 521.332031 554.511719 547.117188 539.726562 565.6875 Z M 282.074219 553.609375 L 425.953125 380.699219 C 428.117188 429.199219 442.722656 483.832031 467.785156 536.660156 C 492.847656 589.488281 526.023438 635.105469 562.261719 667.378906 L 337.246094 670.082031 L 261.160156 706.140625 L 226.542969 633.300781 L 182.546875 654.214844 L 217.164062 727.058594 L 212.660156 729.222656 C 201.839844 734.449219 189.578125 734.992188 178.222656 731.023438 C 166.863281 727.058594 157.847656 718.765625 152.617188 707.945312 L 136.390625 674.050781 C 125.753906 651.691406 135.308594 624.828125 157.667969 614.1875 Z M 353.835938 907.898438 L 341.03125 914.03125 C 333.28125 917.636719 324.625 918.175781 316.511719 915.292969 C 308.398438 912.40625 301.90625 906.636719 298.300781 898.886719 L 237.539062 771.410156 L 308.21875 737.695312 L 368.980469 865.167969 C 376.550781 881.035156 369.699219 900.328125 353.835938 907.898438 Z M 682.34375 663.050781 C 675.851562 666.117188 668.28125 667.199219 659.804688 666.117188 C 634.382812 663.050781 601.386719 641.957031 569.65625 605.355469 C 602.648438 572.359375 612.386719 521.695312 591.472656 477.699219 C 570.558594 433.707031 525.121094 409.367188 478.785156 414.234375 C 475.71875 396.925781 474.277344 380.335938 474.636719 364.652344 C 475.359375 326.246094 486.355469 299.203125 505.105469 290.1875 C 509.976562 287.84375 515.566406 286.761719 521.515625 286.761719 C 563.34375 286.761719 629.875 341.574219 675.671875 437.671875 C 727.597656 547.476562 720.929688 644.480469 682.34375 663.050781 Z M 682.34375 663.050781 " fill-opacity="1" fill-rule="nonzero"/></g><path fill="#ffffff" d="M 780.480469 360.632812 L 939.203125 285.066406 L 960.128906 329.019531 L 801.40625 404.585938 Z M 780.480469 360.632812 " fill-opacity="1" fill-rule="nonzero"/><g clip-path="url(#d2ca313adb)"><path fill="#ffffff" d="M 696.589844 250.984375 L 807.308594 114.4375 L 845.121094 145.101562 L 734.402344 281.644531 Z M 696.589844 250.984375 " fill-opacity="1" fill-rule="nonzero"/></g><path fill="#ffffff" d="M 833.617188 490.320312 L 1009.410156 490.320312 L 1009.410156 539.003906 L 833.617188 539.003906 Z M 833.617188 490.320312 " fill-opacity="1" fill-rule="nonzero"/></svg>