<svg xmlns="http://www.w3.org/2000/svg" xmlns:xlink="http://www.w3.org/1999/xlink" width="1440" zoomAndPan="magnify" viewBox="0 0 1080 1079.999946" height="1440" preserveAspectRatio="xMidYMid meet" version="1.0"><defs><clipPath id="e3b69c5c9b"><path d="M 76.382812 179.539062 L 1003.382812 179.539062 L 1003.382812 900.289062 L 76.382812 900.289062 Z M 76.382812 179.539062 " clip-rule="nonzero"/></clipPath></defs><path fill="#ffffff" d="M 481.355469 789.015625 L 522.921875 789.015625 C 531.414062 789.015625 538.242188 782.183594 538.242188 773.695312 L 538.242188 601.078125 C 538.242188 592.589844 531.414062 585.757812 522.921875 585.757812 L 481.355469 585.757812 C 472.863281 585.757812 466.035156 592.589844 466.035156 601.078125 L 466.035156 773.695312 C 466.035156 782.183594 472.867188 789.015625 481.355469 789.015625 Z M 481.355469 789.015625 " fill-opacity="1" fill-rule="nonzero"/><path fill="#ffffff" d="M 598.546875 789.015625 L 640.117188 789.015625 C 648.605469 789.015625 655.4375 782.183594 655.4375 773.695312 L 655.4375 479.496094 C 655.4375 471.007812 648.605469 464.175781 640.117188 464.175781 L 598.546875 464.175781 C 590.058594 464.175781 583.226562 471.007812 583.226562 479.496094 L 583.226562 773.695312 C 583.226562 782.183594 590.058594 789.015625 598.546875 789.015625 Z M 598.546875 789.015625 " fill-opacity="1" fill-rule="nonzero"/><path fill="#ffffff" d="M 832.933594 789.015625 L 874.5 789.015625 C 882.988281 789.015625 889.820312 782.183594 889.820312 773.695312 L 889.820312 516.867188 C 889.820312 508.378906 882.988281 501.546875 874.5 501.546875 L 832.933594 501.546875 C 824.441406 501.546875 817.613281 508.378906 817.613281 516.867188 L 817.613281 773.695312 C 817.613281 782.183594 824.539062 789.015625 832.933594 789.015625 Z M 832.933594 789.015625 " fill-opacity="1" fill-rule="nonzero"/><path fill="#ffffff" d="M 715.738281 789.015625 L 757.308594 789.015625 C 765.796875 789.015625 772.628906 782.183594 772.628906 773.695312 L 772.628906 566.144531 C 772.628906 557.65625 765.796875 550.824219 757.308594 550.824219 L 715.738281 550.824219 C 707.25 550.824219 700.417969 557.65625 700.417969 566.144531 L 700.417969 773.695312 C 700.417969 782.183594 707.347656 789.015625 715.738281 789.015625 Z M 715.738281 789.015625 " fill-opacity="1" fill-rule="nonzero"/><path fill="#ffffff" d="M 274.488281 583.90625 L 375.1875 583.90625 C 382.3125 583.90625 388.070312 578.148438 388.070312 571.023438 C 388.070312 563.902344 382.3125 558.144531 375.1875 558.144531 L 274.488281 558.144531 C 267.363281 558.144531 261.605469 563.902344 261.605469 571.023438 C 261.605469 578.148438 267.363281 583.90625 274.488281 583.90625 Z M 274.488281 583.90625 " fill-opacity="1" fill-rule="nonzero"/><path fill="#ffffff" d="M 213.597656 594.445312 C 226.574219 594.445312 237.015625 584.003906 237.015625 571.023438 C 237.015625 558.046875 226.574219 547.605469 213.597656 547.605469 C 200.621094 547.605469 190.179688 558.046875 190.179688 571.023438 C 190.179688 584.003906 200.621094 594.445312 213.597656 594.445312 Z M 213.597656 594.445312 " fill-opacity="1" fill-rule="nonzero"/><path fill="#ffffff" d="M 274.488281 486.617188 L 375.1875 486.617188 C 382.3125 486.617188 388.070312 480.863281 388.070312 473.738281 C 388.070312 466.613281 382.3125 460.859375 375.1875 460.859375 L 274.488281 460.859375 C 267.363281 460.859375 261.605469 466.613281 261.605469 473.738281 C 261.605469 480.863281 267.363281 486.617188 274.488281 486.617188 Z M 274.488281 486.617188 " fill-opacity="1" fill-rule="nonzero"/><path fill="#ffffff" d="M 213.597656 497.15625 C 226.574219 497.15625 237.015625 486.714844 237.015625 473.738281 C 237.015625 460.761719 226.574219 450.320312 213.597656 450.320312 C 200.621094 450.320312 190.179688 460.761719 190.179688 473.738281 C 190.179688 486.714844 200.621094 497.15625 213.597656 497.15625 Z M 213.597656 497.15625 " fill-opacity="1" fill-rule="nonzero"/><path fill="#ffffff" d="M 274.488281 681.191406 L 375.1875 681.191406 C 382.3125 681.191406 388.070312 675.433594 388.070312 668.3125 C 388.070312 661.1875 382.3125 655.429688 375.1875 655.429688 L 274.488281 655.429688 C 267.363281 655.429688 261.605469 661.1875 261.605469 668.3125 C 261.605469 675.433594 267.363281 681.191406 274.488281 681.191406 Z M 274.488281 681.191406 " fill-opacity="1" fill-rule="nonzero"/><path fill="#ffffff" d="M 237.015625 668.3125 C 237.015625 669.078125 236.980469 669.84375 236.902344 670.605469 C 236.828125 671.371094 236.714844 672.128906 236.566406 672.878906 C 236.417969 673.632812 236.230469 674.375 236.007812 675.109375 C 235.785156 675.84375 235.527344 676.5625 235.234375 677.273438 C 234.941406 677.980469 234.613281 678.675781 234.25 679.351562 C 233.890625 680.027344 233.496094 680.683594 233.070312 681.320312 C 232.644531 681.960938 232.1875 682.574219 231.699219 683.167969 C 231.214844 683.761719 230.699219 684.328125 230.15625 684.871094 C 229.613281 685.414062 229.046875 685.925781 228.453125 686.414062 C 227.863281 686.902344 227.246094 687.355469 226.609375 687.78125 C 225.972656 688.210938 225.3125 688.601562 224.636719 688.964844 C 223.960938 689.324219 223.269531 689.652344 222.558594 689.945312 C 221.851562 690.242188 221.128906 690.5 220.394531 690.722656 C 219.660156 690.945312 218.917969 691.128906 218.167969 691.28125 C 217.414062 691.429688 216.65625 691.542969 215.894531 691.617188 C 215.128906 691.691406 214.363281 691.730469 213.597656 691.730469 C 212.832031 691.730469 212.066406 691.691406 211.300781 691.617188 C 210.539062 691.542969 209.78125 691.429688 209.027344 691.28125 C 208.277344 691.128906 207.535156 690.945312 206.800781 690.722656 C 206.066406 690.5 205.34375 690.242188 204.636719 689.945312 C 203.925781 689.652344 203.234375 689.324219 202.558594 688.964844 C 201.882812 688.601562 201.222656 688.210938 200.585938 687.78125 C 199.949219 687.355469 199.332031 686.902344 198.742188 686.414062 C 198.148438 685.925781 197.582031 685.414062 197.039062 684.871094 C 196.496094 684.328125 195.980469 683.761719 195.496094 683.167969 C 195.007812 682.574219 194.550781 681.960938 194.125 681.320312 C 193.699219 680.683594 193.304688 680.027344 192.945312 679.351562 C 192.582031 678.675781 192.253906 677.980469 191.960938 677.273438 C 191.667969 676.5625 191.410156 675.84375 191.1875 675.109375 C 190.964844 674.375 190.777344 673.632812 190.628906 672.878906 C 190.480469 672.128906 190.367188 671.371094 190.292969 670.605469 C 190.214844 669.84375 190.179688 669.078125 190.179688 668.3125 C 190.179688 667.542969 190.214844 666.777344 190.292969 666.015625 C 190.367188 665.25 190.480469 664.492188 190.628906 663.742188 C 190.777344 662.988281 190.964844 662.246094 191.1875 661.511719 C 191.410156 660.777344 191.667969 660.058594 191.960938 659.347656 C 192.253906 658.640625 192.582031 657.949219 192.945312 657.269531 C 193.304688 656.59375 193.699219 655.9375 194.125 655.300781 C 194.550781 654.660156 195.007812 654.046875 195.496094 653.453125 C 195.980469 652.859375 196.496094 652.292969 197.039062 651.75 C 197.582031 651.207031 198.148438 650.695312 198.742188 650.207031 C 199.332031 649.722656 199.949219 649.265625 200.585938 648.839844 C 201.222656 648.414062 201.882812 648.019531 202.558594 647.65625 C 203.234375 647.296875 203.925781 646.96875 204.636719 646.675781 C 205.34375 646.382812 206.066406 646.121094 206.800781 645.898438 C 207.535156 645.675781 208.277344 645.492188 209.027344 645.339844 C 209.78125 645.191406 210.539062 645.078125 211.300781 645.003906 C 212.066406 644.929688 212.832031 644.890625 213.597656 644.890625 C 214.363281 644.890625 215.128906 644.929688 215.894531 645.003906 C 216.65625 645.078125 217.414062 645.191406 218.167969 645.339844 C 218.917969 645.492188 219.660156 645.675781 220.394531 645.898438 C 221.128906 646.121094 221.851562 646.382812 222.558594 646.675781 C 223.269531 646.96875 223.960938 647.296875 224.636719 647.65625 C 225.3125 648.019531 225.972656 648.414062 226.609375 648.839844 C 227.246094 649.265625 227.863281 649.722656 228.453125 650.207031 C 229.046875 650.695312 229.613281 651.207031 230.15625 651.75 C 230.699219 652.292969 231.214844 652.859375 231.699219 653.453125 C 232.1875 654.046875 232.644531 654.660156 233.070312 655.300781 C 233.496094 655.9375 233.890625 656.59375 234.25 657.269531 C 234.613281 657.949219 234.941406 658.640625 235.234375 659.347656 C 235.527344 660.058594 235.785156 660.777344 236.007812 661.511719 C 236.230469 662.246094 236.417969 662.988281 236.566406 663.742188 C 236.714844 664.492188 236.828125 665.25 236.902344 666.015625 C 236.980469 666.777344 237.015625 667.542969 237.015625 668.3125 Z M 237.015625 668.3125 " fill-opacity="1" fill-rule="nonzero"/><path fill="#ffffff" d="M 274.488281 778.476562 L 375.1875 778.476562 C 382.3125 778.476562 388.070312 772.71875 388.070312 765.597656 C 388.070312 758.472656 382.3125 752.714844 375.1875 752.714844 L 274.488281 752.714844 C 267.363281 752.714844 261.605469 758.472656 261.605469 765.597656 C 261.605469 772.71875 267.363281 778.476562 274.488281 778.476562 Z M 274.488281 778.476562 " fill-opacity="1" fill-rule="nonzero"/><path fill="#ffffff" d="M 213.597656 789.015625 C 226.574219 789.015625 237.015625 778.574219 237.015625 765.597656 C 237.015625 752.617188 226.574219 742.179688 213.597656 742.179688 C 200.621094 742.179688 190.179688 752.617188 190.179688 765.597656 C 190.179688 778.574219 200.621094 789.015625 213.597656 789.015625 Z M 213.597656 789.015625 " fill-opacity="1" fill-rule="nonzero"/><g clip-path="url(#e3b69c5c9b)"><path fill="#ffffff" d="M 913.042969 179.539062 L 166.953125 179.539062 C 117.09375 179.539062 76.5 220.128906 76.5 269.992188 L 76.5 809.996094 C 76.5 859.859375 117.09375 900.453125 166.953125 900.453125 L 913.042969 900.453125 C 962.90625 900.453125 1003.5 859.859375 1003.5 809.996094 L 1003.5 269.992188 C 1003.5 220.128906 962.90625 179.539062 913.042969 179.539062 Z M 680.707031 259.84375 L 907.871094 259.84375 C 916.265625 259.84375 923.09375 266.675781 923.09375 275.066406 C 923.09375 283.460938 916.265625 290.289062 907.871094 290.289062 L 680.707031 290.289062 C 672.316406 290.289062 665.484375 283.460938 665.484375 275.066406 C 665.484375 266.675781 672.316406 259.84375 680.707031 259.84375 Z M 327.667969 249.5 C 341.71875 249.5 353.136719 260.917969 353.136719 274.96875 C 353.136719 289.019531 341.71875 300.4375 327.667969 300.4375 C 313.617188 300.4375 302.199219 289.019531 302.199219 274.96875 C 302.199219 260.917969 313.617188 249.5 327.667969 249.5 Z M 253.019531 249.5 C 267.070312 249.5 278.488281 260.917969 278.488281 274.96875 C 278.488281 289.019531 267.070312 300.4375 253.019531 300.4375 C 238.96875 300.4375 227.550781 289.019531 227.550781 274.96875 C 227.550781 260.917969 238.96875 249.5 253.019531 249.5 Z M 178.371094 249.5 C 192.421875 249.5 203.839844 260.917969 203.839844 274.96875 C 203.839844 289.019531 192.421875 300.4375 178.371094 300.4375 C 164.320312 300.4375 152.902344 289.019531 152.902344 274.96875 C 152.902344 260.917969 164.320312 249.5 178.371094 249.5 Z M 973.054688 809.996094 C 973.054688 843.074219 946.125 870.007812 913.042969 870.007812 L 166.953125 870.007812 C 133.875 870.007812 106.945312 843.074219 106.945312 809.996094 L 106.945312 370.5 L 973.054688 370.5 Z M 973.054688 809.996094 " fill-opacity="1" fill-rule="nonzero"/></g></svg>