<svg xmlns="http://www.w3.org/2000/svg" xmlns:xlink="http://www.w3.org/1999/xlink" width="1440" zoomAndPan="magnify" viewBox="0 0 1080 1079.999946" height="1440" preserveAspectRatio="xMidYMid meet" version="1.0"><defs><clipPath id="fe5432006b"><path d="M 68.65625 157 L 963 157 L 963 925 L 68.65625 925 Z M 68.65625 157 " clip-rule="nonzero"/></clipPath></defs><path fill="#ffffff" d="M 727.746094 645.738281 C 736.078125 650.5 746.714844 647.640625 751.476562 639.308594 C 756.238281 630.976562 753.378906 620.421875 745.128906 615.660156 L 594.101562 528.441406 L 594.101562 336.785156 C 594.101562 327.183594 586.324219 319.40625 576.722656 319.40625 C 567.121094 319.40625 559.34375 327.183594 559.34375 336.785156 L 559.34375 548.519531 L 727.746094 645.738281 " fill-opacity="1" fill-rule="nonzero"/><g clip-path="url(#fe5432006b)"><path fill="#ffffff" d="M 383.480469 540.824219 L 266.738281 540.824219 C 266.738281 368.449219 406.496094 228.695312 578.867188 228.695312 C 751.238281 228.695312 890.992188 368.449219 890.992188 540.824219 C 890.992188 713.195312 751.238281 852.949219 578.867188 852.949219 C 544.34375 852.949219 510.058594 847.234375 477.363281 835.964844 C 458.714844 829.539062 438.316406 839.457031 431.890625 858.1875 C 425.460938 876.835938 435.460938 897.230469 454.109375 903.660156 C 654.496094 972.546875 872.820312 865.964844 941.703125 665.578125 C 1010.589844 465.191406 904.085938 246.949219 703.699219 177.984375 C 503.316406 109.097656 284.992188 215.679688 216.109375 416.066406 C 202.300781 456.222656 195.234375 498.363281 195.234375 540.824219 L 78.496094 540.824219 C 73.019531 540.824219 68.65625 545.1875 68.65625 550.664062 C 68.65625 553.125 69.609375 555.503906 71.273438 557.328125 L 223.804688 721.925781 C 227.457031 725.890625 233.726562 726.128906 237.695312 722.398438 C 237.851562 722.242188 238.011719 722.082031 238.171875 721.925781 L 390.703125 557.328125 C 394.433594 553.363281 394.195312 547.09375 390.226562 543.441406 C 388.398438 541.773438 386.019531 540.824219 383.480469 540.824219 " fill-opacity="1" fill-rule="nonzero"/></g></svg>