<svg xmlns="http://www.w3.org/2000/svg" xmlns:xlink="http://www.w3.org/1999/xlink" width="1440" zoomAndPan="magnify" viewBox="0 0 1080 1079.999946" height="1440" preserveAspectRatio="xMidYMid meet" version="1.0"><defs><clipPath id="4d9d6d75e5"><path d="M 137.429688 115 L 939 115 L 939 1004 L 137.429688 1004 Z M 137.429688 115 " clip-rule="nonzero"/></clipPath><clipPath id="85ec2e4bc9"><path d="M 288 73.925781 L 788 73.925781 L 788 267 L 288 267 Z M 288 73.925781 " clip-rule="nonzero"/></clipPath></defs><g clip-path="url(#4d9d6d75e5)"><path fill="#ffffff" d="M 862.996094 1003.902344 L 212.664062 1003.902344 C 211.425781 1003.898438 210.183594 1003.859375 208.949219 1003.792969 C 207.710938 1003.726562 206.472656 1003.628906 205.242188 1003.5 C 204.007812 1003.371094 202.777344 1003.214844 201.550781 1003.027344 C 200.328125 1002.839844 199.105469 1002.621094 197.890625 1002.375 C 196.675781 1002.128906 195.46875 1001.851562 194.265625 1001.546875 C 193.066406 1001.238281 191.871094 1000.90625 190.6875 1000.539062 C 189.503906 1000.175781 188.328125 999.785156 187.160156 999.363281 C 185.996094 998.941406 184.839844 998.492188 183.695312 998.015625 C 182.550781 997.535156 181.417969 997.03125 180.300781 996.5 C 179.179688 995.964844 178.074219 995.40625 176.984375 994.820312 C 175.890625 994.230469 174.8125 993.617188 173.75 992.980469 C 172.6875 992.339844 171.644531 991.675781 170.613281 990.984375 C 169.582031 990.296875 168.570312 989.582031 167.574219 988.839844 C 166.582031 988.101562 165.605469 987.335938 164.648438 986.550781 C 163.6875 985.761719 162.75 984.953125 161.832031 984.121094 C 160.914062 983.289062 160.015625 982.433594 159.140625 981.554688 C 158.261719 980.679688 157.410156 979.78125 156.574219 978.863281 C 155.742188 977.945312 154.933594 977.007812 154.144531 976.050781 C 153.359375 975.089844 152.59375 974.113281 151.855469 973.121094 C 151.117188 972.125 150.402344 971.113281 149.710938 970.082031 C 149.019531 969.050781 148.355469 968.007812 147.714844 966.945312 C 147.078125 965.882812 146.464844 964.804688 145.878906 963.710938 C 145.289062 962.621094 144.730469 961.515625 144.199219 960.394531 C 143.664062 959.277344 143.160156 958.144531 142.683594 957 C 142.203125 955.855469 141.753906 954.699219 141.332031 953.535156 C 140.910156 952.367188 140.519531 951.195312 140.15625 950.007812 C 139.789062 948.824219 139.457031 947.628906 139.148438 946.429688 C 138.84375 945.226562 138.566406 944.019531 138.320312 942.804688 C 138.074219 941.589844 137.855469 940.367188 137.667969 939.144531 C 137.480469 937.917969 137.324219 936.6875 137.195312 935.457031 C 137.066406 934.222656 136.972656 932.988281 136.902344 931.75 C 136.835938 930.511719 136.796875 929.273438 136.792969 928.03125 L 136.792969 190.988281 C 136.796875 189.746094 136.835938 188.507812 136.902344 187.269531 C 136.972656 186.03125 137.066406 184.796875 137.195312 183.5625 C 137.324219 182.332031 137.480469 181.101562 137.667969 179.875 C 137.855469 178.652344 138.074219 177.429688 138.320312 176.214844 C 138.566406 175 138.84375 173.792969 139.148438 172.589844 C 139.457031 171.390625 139.789062 170.195312 140.15625 169.011719 C 140.519531 167.824219 140.910156 166.652344 141.332031 165.484375 C 141.753906 164.320312 142.203125 163.164062 142.683594 162.019531 C 143.160156 160.875 143.664062 159.742188 144.199219 158.625 C 144.730469 157.503906 145.289062 156.398438 145.878906 155.308594 C 146.464844 154.214844 147.078125 153.136719 147.714844 152.074219 C 148.355469 151.011719 149.019531 149.964844 149.710938 148.9375 C 150.402344 147.90625 151.117188 146.894531 151.855469 145.898438 C 152.59375 144.90625 153.359375 143.929688 154.144531 142.96875 C 154.933594 142.011719 155.742188 141.074219 156.574219 140.15625 C 157.410156 139.238281 158.261719 138.339844 159.140625 137.464844 C 160.015625 136.585938 160.914062 135.730469 161.832031 134.898438 C 162.75 134.066406 163.6875 133.257812 164.648438 132.46875 C 165.605469 131.683594 166.582031 130.917969 167.574219 130.179688 C 168.570312 129.4375 169.582031 128.722656 170.613281 128.035156 C 171.644531 127.34375 172.6875 126.679688 173.75 126.039062 C 174.8125 125.402344 175.890625 124.789062 176.984375 124.199219 C 178.074219 123.613281 179.179688 123.054688 180.300781 122.519531 C 181.417969 121.988281 182.550781 121.484375 183.695312 121.003906 C 184.839844 120.527344 185.996094 120.078125 187.160156 119.65625 C 188.328125 119.234375 189.503906 118.84375 190.6875 118.480469 C 191.871094 118.113281 193.066406 117.78125 194.265625 117.472656 C 195.46875 117.167969 196.675781 116.890625 197.890625 116.644531 C 199.105469 116.398438 200.328125 116.179688 201.550781 115.992188 C 202.777344 115.804688 204.007812 115.648438 205.242188 115.519531 C 206.472656 115.390625 207.710938 115.292969 208.949219 115.226562 C 210.183594 115.160156 211.425781 115.121094 212.664062 115.117188 L 321.054688 115.117188 C 322.117188 115.117188 323.179688 115.167969 324.238281 115.273438 C 325.300781 115.375 326.351562 115.53125 327.394531 115.738281 C 328.441406 115.949219 329.472656 116.207031 330.492188 116.515625 C 331.511719 116.824219 332.511719 117.183594 333.496094 117.589844 C 334.480469 118 335.441406 118.453125 336.382812 118.953125 C 337.320312 119.457031 338.234375 120.003906 339.117188 120.59375 C 340.003906 121.1875 340.859375 121.820312 341.679688 122.496094 C 342.503906 123.171875 343.292969 123.886719 344.046875 124.640625 C 344.796875 125.390625 345.511719 126.179688 346.1875 127.003906 C 346.863281 127.828125 347.496094 128.679688 348.089844 129.566406 C 348.679688 130.453125 349.226562 131.363281 349.730469 132.304688 C 350.230469 133.242188 350.6875 134.203125 351.09375 135.1875 C 351.5 136.171875 351.859375 137.175781 352.167969 138.191406 C 352.476562 139.210938 352.738281 140.242188 352.945312 141.289062 C 353.152344 142.332031 353.308594 143.386719 353.414062 144.445312 C 353.515625 145.503906 353.570312 146.566406 353.570312 147.632812 C 353.570312 148.695312 353.515625 149.757812 353.414062 150.820312 C 353.308594 151.878906 353.152344 152.929688 352.945312 153.976562 C 352.738281 155.019531 352.476562 156.050781 352.167969 157.070312 C 351.859375 158.089844 351.5 159.089844 351.09375 160.074219 C 350.6875 161.058594 350.230469 162.019531 349.730469 162.960938 C 349.226562 163.898438 348.679688 164.8125 348.089844 165.699219 C 347.496094 166.582031 346.863281 167.4375 346.1875 168.261719 C 345.511719 169.082031 344.796875 169.871094 344.046875 170.625 C 343.292969 171.378906 342.503906 172.09375 341.679688 172.769531 C 340.859375 173.445312 340.003906 174.078125 339.117188 174.667969 C 338.234375 175.261719 337.320312 175.808594 336.382812 176.308594 C 335.441406 176.8125 334.480469 177.265625 333.496094 177.671875 C 332.511719 178.082031 331.511719 178.4375 330.492188 178.75 C 329.472656 179.058594 328.441406 179.316406 327.394531 179.523438 C 326.351562 179.730469 325.300781 179.886719 324.238281 179.992188 C 323.179688 180.097656 322.117188 180.148438 321.054688 180.148438 L 212.664062 180.148438 C 211.953125 180.148438 211.246094 180.21875 210.550781 180.355469 C 209.851562 180.496094 209.171875 180.703125 208.515625 180.972656 C 207.859375 181.246094 207.234375 181.578125 206.640625 181.976562 C 206.050781 182.371094 205.503906 182.820312 205 183.324219 C 204.496094 183.828125 204.046875 184.375 203.652344 184.964844 C 203.257812 185.558594 202.921875 186.183594 202.648438 186.839844 C 202.378906 187.496094 202.171875 188.175781 202.035156 188.871094 C 201.894531 189.570312 201.824219 190.277344 201.824219 190.988281 L 201.824219 928.03125 C 201.824219 928.742188 201.894531 929.449219 202.035156 930.144531 C 202.171875 930.84375 202.378906 931.523438 202.648438 932.179688 C 202.921875 932.835938 203.257812 933.460938 203.652344 934.054688 C 204.046875 934.644531 204.496094 935.191406 205 935.695312 C 205.503906 936.199219 206.050781 936.648438 206.640625 937.042969 C 207.234375 937.441406 207.859375 937.773438 208.515625 938.046875 C 209.171875 938.316406 209.851562 938.523438 210.550781 938.664062 C 211.246094 938.800781 211.953125 938.871094 212.664062 938.871094 L 862.996094 938.871094 C 863.707031 938.871094 864.414062 938.800781 865.113281 938.664062 C 865.808594 938.523438 866.488281 938.316406 867.144531 938.046875 C 867.800781 937.773438 868.425781 937.441406 869.019531 937.042969 C 869.609375 936.648438 870.15625 936.199219 870.660156 935.695312 C 871.164062 935.191406 871.613281 934.644531 872.007812 934.054688 C 872.40625 933.460938 872.738281 932.835938 873.011719 932.179688 C 873.285156 931.523438 873.488281 930.84375 873.628906 930.144531 C 873.765625 929.449219 873.835938 928.742188 873.835938 928.03125 L 873.835938 190.988281 C 873.835938 190.277344 873.765625 189.570312 873.628906 188.871094 C 873.488281 188.175781 873.285156 187.496094 873.011719 186.839844 C 872.738281 186.183594 872.40625 185.558594 872.007812 184.964844 C 871.613281 184.375 871.164062 183.828125 870.660156 183.324219 C 870.15625 182.820312 869.609375 182.371094 869.019531 181.976562 C 868.425781 181.578125 867.800781 181.246094 867.144531 180.972656 C 866.488281 180.703125 865.808594 180.496094 865.113281 180.355469 C 864.414062 180.21875 863.707031 180.148438 862.996094 180.148438 L 754.609375 180.148438 C 753.542969 180.148438 752.480469 180.097656 751.421875 179.992188 C 750.359375 179.886719 749.308594 179.730469 748.265625 179.523438 C 747.21875 179.316406 746.1875 179.058594 745.167969 178.75 C 744.148438 178.4375 743.148438 178.082031 742.164062 177.671875 C 741.179688 177.265625 740.21875 176.8125 739.28125 176.308594 C 738.339844 175.808594 737.429688 175.261719 736.542969 174.667969 C 735.65625 174.078125 734.804688 173.441406 733.980469 172.769531 C 733.15625 172.09375 732.367188 171.378906 731.617188 170.625 C 730.863281 169.871094 730.148438 169.082031 729.472656 168.261719 C 728.796875 167.4375 728.164062 166.582031 727.570312 165.699219 C 726.980469 164.8125 726.433594 163.898438 725.929688 162.960938 C 725.429688 162.019531 724.972656 161.058594 724.566406 160.074219 C 724.160156 159.089844 723.800781 158.089844 723.492188 157.070312 C 723.183594 156.050781 722.925781 155.019531 722.714844 153.976562 C 722.507812 152.929688 722.351562 151.878906 722.25 150.820312 C 722.144531 149.757812 722.089844 148.695312 722.089844 147.632812 C 722.089844 146.566406 722.144531 145.503906 722.25 144.445312 C 722.351562 143.386719 722.507812 142.332031 722.714844 141.289062 C 722.925781 140.242188 723.183594 139.210938 723.492188 138.191406 C 723.800781 137.175781 724.160156 136.171875 724.566406 135.1875 C 724.972656 134.203125 725.429688 133.242188 725.929688 132.304688 C 726.433594 131.363281 726.980469 130.453125 727.570312 129.566406 C 728.164062 128.679688 728.796875 127.828125 729.472656 127.003906 C 730.148438 126.179688 730.863281 125.390625 731.617188 124.640625 C 732.367188 123.886719 733.15625 123.171875 733.980469 122.496094 C 734.804688 121.820312 735.65625 121.1875 736.542969 120.59375 C 737.429688 120.003906 738.339844 119.457031 739.28125 118.953125 C 740.21875 118.453125 741.179688 118 742.164062 117.589844 C 743.148438 117.183594 744.148438 116.824219 745.167969 116.515625 C 746.1875 116.207031 747.21875 115.949219 748.265625 115.738281 C 749.308594 115.53125 750.359375 115.375 751.421875 115.273438 C 752.480469 115.167969 753.542969 115.117188 754.609375 115.117188 L 862.996094 115.117188 C 864.238281 115.121094 865.476562 115.160156 866.714844 115.226562 C 867.953125 115.292969 869.1875 115.390625 870.421875 115.519531 C 871.652344 115.648438 872.882812 115.804688 874.109375 115.992188 C 875.335938 116.179688 876.554688 116.398438 877.769531 116.644531 C 878.984375 116.890625 880.191406 117.167969 881.394531 117.472656 C 882.59375 117.78125 883.789062 118.113281 884.972656 118.480469 C 886.160156 118.84375 887.335938 119.234375 888.5 119.65625 C 889.667969 120.078125 890.820312 120.527344 891.964844 121.003906 C 893.109375 121.484375 894.242188 121.988281 895.359375 122.519531 C 896.480469 123.054688 897.585938 123.613281 898.679688 124.199219 C 899.769531 124.789062 900.847656 125.402344 901.910156 126.039062 C 902.972656 126.679688 904.019531 127.34375 905.046875 128.035156 C 906.078125 128.722656 907.089844 129.4375 908.085938 130.179688 C 909.082031 130.917969 910.054688 131.683594 911.015625 132.46875 C 911.972656 133.257812 912.910156 134.066406 913.828125 134.898438 C 914.746094 135.730469 915.644531 136.585938 916.519531 137.464844 C 917.398438 138.339844 918.253906 139.238281 919.085938 140.15625 C 919.917969 141.074219 920.730469 142.011719 921.515625 142.96875 C 922.304688 143.929688 923.066406 144.90625 923.804688 145.898438 C 924.546875 146.894531 925.261719 147.90625 925.949219 148.9375 C 926.640625 149.964844 927.304688 151.011719 927.945312 152.074219 C 928.585938 153.136719 929.195312 154.214844 929.785156 155.308594 C 930.371094 156.398438 930.929688 157.503906 931.464844 158.625 C 931.996094 159.742188 932.5 160.875 932.980469 162.019531 C 933.457031 163.164062 933.90625 164.320312 934.328125 165.484375 C 934.75 166.652344 935.140625 167.824219 935.507812 169.011719 C 935.871094 170.195312 936.207031 171.390625 936.511719 172.589844 C 936.816406 173.792969 937.09375 175 937.339844 176.214844 C 937.585938 177.429688 937.804688 178.652344 937.992188 179.875 C 938.179688 181.101562 938.335938 182.332031 938.464844 183.5625 C 938.59375 184.796875 938.691406 186.03125 938.757812 187.269531 C 938.824219 188.507812 938.863281 189.746094 938.871094 190.988281 L 938.871094 928.03125 C 938.863281 929.273438 938.824219 930.511719 938.757812 931.75 C 938.691406 932.988281 938.59375 934.222656 938.464844 935.457031 C 938.335938 936.6875 938.179688 937.917969 937.992188 939.144531 C 937.804688 940.367188 937.585938 941.589844 937.339844 942.804688 C 937.09375 944.019531 936.816406 945.226562 936.511719 946.429688 C 936.207031 947.628906 935.871094 948.824219 935.507812 950.007812 C 935.140625 951.195312 934.75 952.367188 934.328125 953.535156 C 933.90625 954.699219 933.457031 955.855469 932.980469 957 C 932.5 958.144531 931.996094 959.277344 931.464844 960.394531 C 930.929688 961.515625 930.371094 962.621094 929.785156 963.710938 C 929.195312 964.804688 928.585938 965.882812 927.945312 966.945312 C 927.304688 968.007812 926.640625 969.050781 925.949219 970.082031 C 925.261719 971.113281 924.546875 972.125 923.804688 973.121094 C 923.066406 974.113281 922.304688 975.089844 921.515625 976.050781 C 920.730469 977.007812 919.917969 977.945312 919.085938 978.863281 C 918.253906 979.78125 917.398438 980.679688 916.519531 981.554688 C 915.644531 982.433594 914.746094 983.289062 913.828125 984.121094 C 912.910156 984.953125 911.972656 985.761719 911.015625 986.550781 C 910.054688 987.335938 909.082031 988.101562 908.085938 988.839844 C 907.089844 989.582031 906.078125 990.296875 905.046875 990.984375 C 904.019531 991.675781 902.972656 992.339844 901.910156 992.980469 C 900.847656 993.617188 899.769531 994.230469 898.679688 994.820312 C 897.585938 995.40625 896.480469 995.964844 895.359375 996.5 C 894.242188 997.03125 893.109375 997.535156 891.964844 998.015625 C 890.820312 998.492188 889.667969 998.941406 888.5 999.363281 C 887.335938 999.785156 886.160156 1000.175781 884.972656 1000.539062 C 883.789062 1000.90625 882.59375 1001.238281 881.394531 1001.546875 C 880.191406 1001.851562 878.984375 1002.128906 877.769531 1002.375 C 876.554688 1002.621094 875.335938 1002.839844 874.109375 1003.027344 C 872.882812 1003.214844 871.652344 1003.371094 870.421875 1003.5 C 869.1875 1003.628906 867.953125 1003.726562 866.714844 1003.792969 C 865.476562 1003.859375 864.238281 1003.898438 862.996094 1003.902344 Z M 862.996094 1003.902344 " fill-opacity="1" fill-rule="nonzero"/></g><g clip-path="url(#85ec2e4bc9)"><path fill="#ffffff" d="M 711.253906 266.859375 L 364.410156 266.859375 C 363.167969 266.851562 361.929688 266.816406 360.691406 266.75 C 359.453125 266.679688 358.21875 266.582031 356.984375 266.457031 C 355.75 266.328125 354.523438 266.171875 353.296875 265.984375 C 352.070312 265.796875 350.851562 265.578125 349.636719 265.332031 C 348.421875 265.082031 347.214844 264.808594 346.011719 264.5 C 344.808594 264.195312 343.617188 263.859375 342.433594 263.496094 C 341.246094 263.132812 340.070312 262.738281 338.90625 262.316406 C 337.738281 261.898438 336.585938 261.449219 335.441406 260.96875 C 334.296875 260.492188 333.164062 259.988281 332.042969 259.453125 C 330.925781 258.921875 329.820312 258.359375 328.726562 257.773438 C 327.636719 257.1875 326.558594 256.574219 325.496094 255.933594 C 324.433594 255.296875 323.386719 254.632812 322.359375 253.941406 C 321.328125 253.25 320.316406 252.535156 319.320312 251.796875 C 318.324219 251.058594 317.347656 250.292969 316.390625 249.507812 C 315.433594 248.71875 314.496094 247.910156 313.578125 247.074219 C 312.660156 246.242188 311.761719 245.386719 310.882812 244.511719 C 310.007812 243.636719 309.152344 242.738281 308.320312 241.820312 C 307.488281 240.902344 306.675781 239.960938 305.890625 239.003906 C 305.101562 238.046875 304.339844 237.070312 303.597656 236.074219 C 302.859375 235.082031 302.144531 234.066406 301.453125 233.039062 C 300.765625 232.007812 300.101562 230.960938 299.460938 229.898438 C 298.820312 228.835938 298.207031 227.761719 297.621094 226.667969 C 297.035156 225.578125 296.476562 224.46875 295.941406 223.351562 C 295.410156 222.230469 294.902344 221.101562 294.425781 219.957031 C 293.949219 218.8125 293.5 217.65625 293.078125 216.492188 C 292.65625 215.324219 292.261719 214.148438 291.898438 212.964844 C 291.535156 211.777344 291.199219 210.585938 290.894531 209.382812 C 290.589844 208.183594 290.3125 206.972656 290.066406 205.757812 C 289.816406 204.542969 289.601562 203.324219 289.414062 202.097656 C 289.226562 200.875 289.066406 199.644531 288.941406 198.410156 C 288.8125 197.175781 288.714844 195.941406 288.648438 194.703125 C 288.582031 193.464844 288.542969 192.226562 288.535156 190.988281 L 288.535156 147.632812 C 288.542969 146.390625 288.582031 145.152344 288.648438 143.914062 C 288.714844 142.675781 288.8125 141.441406 288.941406 140.207031 C 289.066406 138.976562 289.226562 137.746094 289.414062 136.519531 C 289.601562 135.296875 289.816406 134.074219 290.066406 132.859375 C 290.3125 131.644531 290.589844 130.4375 290.894531 129.234375 C 291.199219 128.035156 291.535156 126.839844 291.898438 125.65625 C 292.261719 124.46875 292.65625 123.292969 293.078125 122.128906 C 293.5 120.960938 293.949219 119.808594 294.425781 118.664062 C 294.902344 117.519531 295.410156 116.386719 295.941406 115.269531 C 296.476562 114.148438 297.035156 113.042969 297.621094 111.949219 C 298.207031 110.859375 298.820312 109.78125 299.460938 108.71875 C 300.101562 107.65625 300.765625 106.609375 301.453125 105.582031 C 302.144531 104.550781 302.859375 103.539062 303.601562 102.542969 C 304.339844 101.550781 305.101562 100.574219 305.890625 99.613281 C 306.675781 98.65625 307.488281 97.71875 308.320312 96.800781 C 309.152344 95.882812 310.007812 94.984375 310.882812 94.109375 C 311.761719 93.230469 312.660156 92.375 313.578125 91.542969 C 314.496094 90.710938 315.433594 89.902344 316.390625 89.113281 C 317.347656 88.328125 318.324219 87.5625 319.320312 86.824219 C 320.316406 86.082031 321.328125 85.367188 322.359375 84.679688 C 323.386719 83.988281 324.433594 83.324219 325.496094 82.683594 C 326.558594 82.046875 327.636719 81.433594 328.726562 80.84375 C 329.820312 80.257812 330.925781 79.699219 332.042969 79.164062 C 333.164062 78.632812 334.296875 78.128906 335.441406 77.648438 C 336.585938 77.171875 337.738281 76.722656 338.90625 76.300781 C 340.070312 75.878906 341.246094 75.488281 342.433594 75.125 C 343.617188 74.757812 344.808594 74.425781 346.011719 74.117188 C 347.214844 73.8125 348.421875 73.535156 349.636719 73.289062 C 350.851562 73.042969 352.070312 72.824219 353.296875 72.636719 C 354.523438 72.449219 355.75 72.292969 356.984375 72.164062 C 358.21875 72.035156 359.453125 71.9375 360.691406 71.871094 C 361.929688 71.804688 363.167969 71.765625 364.410156 71.761719 L 711.253906 71.761719 C 712.492188 71.765625 713.730469 71.804688 714.96875 71.871094 C 716.207031 71.9375 717.441406 72.035156 718.675781 72.164062 C 719.910156 72.292969 721.140625 72.449219 722.363281 72.636719 C 723.589844 72.824219 724.808594 73.042969 726.023438 73.289062 C 727.238281 73.535156 728.449219 73.8125 729.648438 74.117188 C 730.851562 74.425781 732.042969 74.757812 733.230469 75.125 C 734.414062 75.488281 735.589844 75.878906 736.753906 76.300781 C 737.921875 76.722656 739.078125 77.171875 740.222656 77.648438 C 741.363281 78.128906 742.496094 78.632812 743.617188 79.164062 C 744.734375 79.699219 745.839844 80.257812 746.933594 80.84375 C 748.027344 81.433594 749.101562 82.046875 750.164062 82.683594 C 751.226562 83.324219 752.273438 83.988281 753.304688 84.679688 C 754.332031 85.367188 755.347656 86.082031 756.339844 86.824219 C 757.335938 87.5625 758.3125 88.328125 759.269531 89.113281 C 760.226562 89.902344 761.164062 90.710938 762.085938 91.542969 C 763.003906 92.375 763.898438 93.230469 764.777344 94.109375 C 765.652344 94.984375 766.507812 95.882812 767.339844 96.800781 C 768.175781 97.71875 768.984375 98.65625 769.769531 99.613281 C 770.558594 100.574219 771.320312 101.550781 772.0625 102.542969 C 772.800781 103.539062 773.515625 104.550781 774.207031 105.582031 C 774.894531 106.609375 775.5625 107.65625 776.199219 108.71875 C 776.839844 109.78125 777.453125 110.859375 778.039062 111.953125 C 778.625 113.042969 779.1875 114.148438 779.71875 115.269531 C 780.25 116.386719 780.757812 117.519531 781.234375 118.664062 C 781.710938 119.808594 782.160156 120.960938 782.582031 122.128906 C 783.003906 123.292969 783.398438 124.46875 783.761719 125.65625 C 784.125 126.839844 784.460938 128.035156 784.765625 129.234375 C 785.074219 130.4375 785.347656 131.644531 785.597656 132.859375 C 785.84375 134.074219 786.058594 135.296875 786.246094 136.519531 C 786.433594 137.746094 786.59375 138.976562 786.722656 140.207031 C 786.847656 141.441406 786.945312 142.675781 787.011719 143.914062 C 787.082031 145.152344 787.117188 146.390625 787.125 147.632812 L 787.125 190.988281 C 787.117188 192.226562 787.082031 193.464844 787.011719 194.703125 C 786.945312 195.941406 786.847656 197.175781 786.722656 198.410156 C 786.59375 199.644531 786.433594 200.875 786.246094 202.097656 C 786.058594 203.324219 785.84375 204.542969 785.597656 205.757812 C 785.347656 206.972656 785.074219 208.183594 784.765625 209.382812 C 784.460938 210.585938 784.125 211.777344 783.761719 212.964844 C 783.398438 214.148438 783.003906 215.324219 782.582031 216.492188 C 782.160156 217.65625 781.710938 218.8125 781.234375 219.957031 C 780.757812 221.101562 780.25 222.230469 779.71875 223.351562 C 779.1875 224.46875 778.625 225.578125 778.039062 226.667969 C 777.453125 227.761719 776.839844 228.835938 776.199219 229.898438 C 775.5625 230.960938 774.898438 232.007812 774.207031 233.039062 C 773.515625 234.066406 772.800781 235.082031 772.0625 236.074219 C 771.320312 237.070312 770.558594 238.046875 769.769531 239.003906 C 768.984375 239.960938 768.175781 240.902344 767.339844 241.820312 C 766.507812 242.738281 765.652344 243.636719 764.777344 244.511719 C 763.898438 245.386719 763.003906 246.242188 762.085938 247.074219 C 761.167969 247.910156 760.226562 248.71875 759.269531 249.507812 C 758.3125 250.292969 757.335938 251.058594 756.339844 251.796875 C 755.347656 252.535156 754.332031 253.25 753.304688 253.941406 C 752.273438 254.632812 751.226562 255.296875 750.164062 255.933594 C 749.101562 256.574219 748.027344 257.1875 746.933594 257.773438 C 745.839844 258.359375 744.734375 258.921875 743.617188 259.453125 C 742.496094 259.988281 741.363281 260.492188 740.222656 260.96875 C 739.078125 261.449219 737.921875 261.898438 736.753906 262.316406 C 735.589844 262.738281 734.414062 263.132812 733.230469 263.496094 C 732.042969 263.859375 730.851562 264.195312 729.648438 264.5 C 728.449219 264.808594 727.238281 265.082031 726.023438 265.332031 C 724.808594 265.578125 723.589844 265.796875 722.363281 265.984375 C 721.140625 266.171875 719.910156 266.328125 718.675781 266.457031 C 717.441406 266.582031 716.207031 266.679688 714.96875 266.75 C 713.730469 266.816406 712.492188 266.851562 711.253906 266.859375 Z M 364.410156 136.792969 C 363.695312 136.792969 362.992188 136.863281 362.292969 137 C 361.597656 137.140625 360.917969 137.347656 360.261719 137.617188 C 359.601562 137.890625 358.976562 138.222656 358.386719 138.621094 C 357.792969 139.015625 357.246094 139.464844 356.742188 139.96875 C 356.242188 140.472656 355.792969 141.019531 355.394531 141.609375 C 355 142.203125 354.667969 142.828125 354.394531 143.484375 C 354.121094 144.140625 353.917969 144.820312 353.777344 145.515625 C 353.640625 146.214844 353.570312 146.921875 353.570312 147.632812 L 353.570312 190.988281 C 353.570312 191.699219 353.640625 192.402344 353.777344 193.101562 C 353.917969 193.800781 354.121094 194.476562 354.394531 195.136719 C 354.667969 195.792969 355 196.417969 355.394531 197.007812 C 355.792969 197.601562 356.242188 198.148438 356.742188 198.652344 C 357.246094 199.15625 357.792969 199.605469 358.386719 200 C 358.976562 200.394531 359.601562 200.730469 360.261719 201 C 360.917969 201.273438 361.597656 201.480469 362.292969 201.617188 C 362.992188 201.757812 363.695312 201.828125 364.410156 201.828125 L 711.253906 201.828125 C 711.964844 201.828125 712.667969 201.757812 713.367188 201.617188 C 714.066406 201.480469 714.742188 201.273438 715.402344 201 C 716.058594 200.730469 716.683594 200.394531 717.273438 200 C 717.867188 199.605469 718.414062 199.15625 718.917969 198.652344 C 719.421875 198.148438 719.871094 197.601562 720.265625 197.007812 C 720.660156 196.417969 720.996094 195.792969 721.265625 195.136719 C 721.539062 194.476562 721.746094 193.800781 721.882812 193.101562 C 722.023438 192.402344 722.089844 191.699219 722.089844 190.988281 L 722.089844 147.632812 C 722.089844 146.921875 722.023438 146.214844 721.882812 145.515625 C 721.746094 144.820312 721.539062 144.140625 721.265625 143.484375 C 720.996094 142.828125 720.660156 142.203125 720.265625 141.609375 C 719.871094 141.019531 719.421875 140.472656 718.917969 139.96875 C 718.414062 139.464844 717.867188 139.015625 717.273438 138.621094 C 716.683594 138.222656 716.058594 137.890625 715.402344 137.617188 C 714.742188 137.347656 714.066406 137.140625 713.367188 137 C 712.667969 136.863281 711.964844 136.792969 711.253906 136.792969 Z M 364.410156 136.792969 " fill-opacity="1" fill-rule="nonzero"/></g><path fill="#ffffff" d="M 321.054688 852.160156 C 319.992188 852.144531 318.933594 852.082031 317.878906 851.964844 C 316.824219 851.847656 315.777344 851.683594 314.738281 851.464844 C 313.699219 851.246094 312.675781 850.980469 311.660156 850.664062 C 310.648438 850.347656 309.652344 849.984375 308.675781 849.570312 C 307.699219 849.160156 306.742188 848.699219 305.808594 848.195312 C 304.875 847.691406 303.96875 847.140625 303.089844 846.550781 C 302.207031 845.957031 301.359375 845.324219 300.539062 844.648438 C 299.71875 843.972656 298.933594 843.261719 298.183594 842.511719 C 297.433594 841.761719 296.722656 840.976562 296.046875 840.15625 C 295.371094 839.339844 294.738281 838.488281 294.144531 837.609375 C 293.554688 836.726562 293.003906 835.820312 292.5 834.886719 C 291.996094 833.953125 291.535156 833 291.125 832.019531 C 290.710938 831.042969 290.347656 830.046875 290.03125 829.035156 C 289.714844 828.023438 289.449219 826.996094 289.230469 825.957031 C 289.015625 824.917969 288.847656 823.871094 288.730469 822.816406 C 288.613281 821.761719 288.550781 820.703125 288.535156 819.644531 L 288.535156 646.222656 C 288.535156 645.15625 288.589844 644.09375 288.691406 643.035156 C 288.796875 641.972656 288.953125 640.921875 289.160156 639.878906 C 289.367188 638.832031 289.628906 637.800781 289.9375 636.78125 C 290.246094 635.761719 290.605469 634.761719 291.011719 633.777344 C 291.417969 632.792969 291.875 631.832031 292.375 630.894531 C 292.878906 629.953125 293.425781 629.042969 294.015625 628.15625 C 294.609375 627.269531 295.242188 626.414062 295.917969 625.59375 C 296.59375 624.769531 297.308594 623.980469 298.058594 623.226562 C 298.8125 622.476562 299.601562 621.761719 300.425781 621.085938 C 301.246094 620.410156 302.101562 619.777344 302.988281 619.183594 C 303.871094 618.59375 304.785156 618.046875 305.722656 617.542969 C 306.664062 617.042969 307.625 616.585938 308.609375 616.179688 C 309.59375 615.773438 310.59375 615.414062 311.613281 615.105469 C 312.632812 614.796875 313.664062 614.535156 314.710938 614.328125 C 315.753906 614.121094 316.804688 613.964844 317.867188 613.859375 C 318.925781 613.757812 319.988281 613.703125 321.054688 613.703125 C 322.117188 613.703125 323.179688 613.757812 324.238281 613.859375 C 325.300781 613.964844 326.351562 614.121094 327.394531 614.328125 C 328.441406 614.535156 329.472656 614.796875 330.492188 615.105469 C 331.511719 615.414062 332.511719 615.773438 333.496094 616.179688 C 334.480469 616.585938 335.441406 617.042969 336.382812 617.542969 C 337.320312 618.046875 338.234375 618.59375 339.117188 619.183594 C 340.003906 619.777344 340.859375 620.410156 341.679688 621.085938 C 342.503906 621.761719 343.292969 622.476562 344.046875 623.226562 C 344.796875 623.980469 345.511719 624.769531 346.1875 625.59375 C 346.863281 626.414062 347.496094 627.269531 348.089844 628.15625 C 348.679688 629.042969 349.226562 629.953125 349.730469 630.894531 C 350.230469 631.832031 350.6875 632.792969 351.09375 633.777344 C 351.5 634.761719 351.859375 635.761719 352.167969 636.78125 C 352.476562 637.800781 352.738281 638.832031 352.945312 639.878906 C 353.152344 640.921875 353.308594 641.972656 353.414062 643.035156 C 353.515625 644.09375 353.570312 645.15625 353.570312 646.222656 L 353.570312 819.644531 C 353.554688 820.703125 353.492188 821.761719 353.375 822.816406 C 353.257812 823.871094 353.089844 824.917969 352.875 825.957031 C 352.65625 826.996094 352.390625 828.023438 352.074219 829.035156 C 351.757812 830.046875 351.394531 831.042969 350.980469 832.019531 C 350.570312 833 350.109375 833.953125 349.605469 834.886719 C 349.101562 835.820312 348.550781 836.726562 347.960938 837.609375 C 347.367188 838.488281 346.734375 839.339844 346.058594 840.15625 C 345.382812 840.976562 344.671875 841.761719 343.921875 842.511719 C 343.171875 843.261719 342.386719 843.972656 341.566406 844.648438 C 340.746094 845.324219 339.898438 845.957031 339.019531 846.550781 C 338.136719 847.140625 337.230469 847.691406 336.296875 848.195312 C 335.363281 848.699219 334.40625 849.160156 333.429688 849.570312 C 332.453125 849.984375 331.457031 850.347656 330.445312 850.664062 C 329.429688 850.980469 328.40625 851.246094 327.367188 851.464844 C 326.328125 851.683594 325.28125 851.847656 324.226562 851.964844 C 323.171875 852.082031 322.113281 852.144531 321.054688 852.160156 Z M 321.054688 852.160156 " fill-opacity="1" fill-rule="nonzero"/><path fill="#ffffff" d="M 610.234375 852.160156 C 609.167969 852.160156 608.105469 852.109375 607.046875 852.003906 C 605.988281 851.898438 604.933594 851.742188 603.890625 851.535156 C 602.847656 851.328125 601.8125 851.070312 600.796875 850.757812 C 599.777344 850.449219 598.773438 850.09375 597.789062 849.683594 C 596.808594 849.277344 595.84375 848.820312 594.90625 848.320312 C 593.96875 847.816406 593.054688 847.269531 592.167969 846.679688 C 591.285156 846.089844 590.429688 845.453125 589.605469 844.777344 C 588.78125 844.101562 587.996094 843.390625 587.242188 842.636719 C 586.488281 841.882812 585.773438 841.09375 585.097656 840.273438 C 584.421875 839.449219 583.789062 838.59375 583.199219 837.707031 C 582.605469 836.824219 582.058594 835.910156 581.558594 834.972656 C 581.054688 834.03125 580.601562 833.070312 580.191406 832.085938 C 579.785156 831.101562 579.425781 830.101562 579.117188 829.082031 C 578.808594 828.0625 578.550781 827.03125 578.34375 825.988281 C 578.132812 824.941406 577.980469 823.890625 577.875 822.832031 C 577.769531 821.769531 577.71875 820.707031 577.71875 819.644531 L 577.71875 646.222656 C 577.71875 645.15625 577.769531 644.09375 577.875 643.035156 C 577.980469 641.972656 578.132812 640.921875 578.34375 639.878906 C 578.550781 638.832031 578.808594 637.800781 579.117188 636.78125 C 579.425781 635.761719 579.785156 634.761719 580.191406 633.777344 C 580.601562 632.792969 581.054688 631.832031 581.558594 630.894531 C 582.058594 629.953125 582.605469 629.042969 583.199219 628.15625 C 583.789062 627.269531 584.421875 626.414062 585.097656 625.59375 C 585.773438 624.769531 586.488281 623.980469 587.242188 623.226562 C 587.996094 622.476562 588.78125 621.761719 589.605469 621.085938 C 590.429688 620.410156 591.285156 619.777344 592.167969 619.183594 C 593.054688 618.59375 593.964844 618.046875 594.90625 617.542969 C 595.84375 617.042969 596.808594 616.585938 597.789062 616.179688 C 598.773438 615.773438 599.777344 615.414062 600.796875 615.105469 C 601.8125 614.796875 602.847656 614.535156 603.890625 614.328125 C 604.933594 614.121094 605.988281 613.964844 607.046875 613.859375 C 608.105469 613.757812 609.167969 613.703125 610.234375 613.703125 C 611.300781 613.703125 612.363281 613.757812 613.421875 613.859375 C 614.480469 613.964844 615.535156 614.121094 616.578125 614.328125 C 617.621094 614.535156 618.652344 614.796875 619.671875 615.105469 C 620.691406 615.414062 621.695312 615.773438 622.679688 616.179688 C 623.660156 616.585938 624.625 617.042969 625.5625 617.542969 C 626.5 618.046875 627.414062 618.59375 628.300781 619.183594 C 629.183594 619.777344 630.039062 620.410156 630.863281 621.085938 C 631.6875 621.761719 632.472656 622.476562 633.226562 623.226562 C 633.980469 623.980469 634.695312 624.769531 635.371094 625.59375 C 636.046875 626.414062 636.679688 627.269531 637.269531 628.15625 C 637.863281 629.042969 638.410156 629.953125 638.910156 630.894531 C 639.414062 631.832031 639.867188 632.792969 640.277344 633.777344 C 640.683594 634.761719 641.042969 635.761719 641.351562 636.78125 C 641.660156 637.800781 641.917969 638.832031 642.125 639.878906 C 642.332031 640.921875 642.488281 641.972656 642.59375 643.035156 C 642.699219 644.09375 642.75 645.15625 642.75 646.222656 L 642.75 819.644531 C 642.738281 820.703125 642.671875 821.761719 642.554688 822.816406 C 642.441406 823.871094 642.273438 824.917969 642.054688 825.957031 C 641.839844 826.996094 641.570312 828.023438 641.253906 829.035156 C 640.9375 830.046875 640.574219 831.042969 640.164062 832.019531 C 639.75 833 639.292969 833.953125 638.785156 834.886719 C 638.28125 835.820312 637.734375 836.726562 637.140625 837.609375 C 636.546875 838.488281 635.914062 839.339844 635.238281 840.15625 C 634.566406 840.976562 633.851562 841.761719 633.101562 842.511719 C 632.351562 843.261719 631.566406 843.972656 630.75 844.648438 C 629.929688 845.324219 629.078125 845.957031 628.199219 846.550781 C 627.320312 847.140625 626.410156 847.691406 625.476562 848.195312 C 624.546875 848.699219 623.589844 849.160156 622.613281 849.570312 C 621.632812 849.984375 620.640625 850.347656 619.625 850.664062 C 618.613281 850.980469 617.585938 851.246094 616.546875 851.464844 C 615.507812 851.683594 614.460938 851.847656 613.40625 851.964844 C 612.351562 852.082031 611.296875 852.144531 610.234375 852.160156 Z M 610.234375 852.160156 " fill-opacity="1" fill-rule="nonzero"/><path fill="#ffffff" d="M 465.425781 852.160156 C 464.367188 852.144531 463.308594 852.082031 462.253906 851.964844 C 461.199219 851.847656 460.152344 851.683594 459.113281 851.464844 C 458.074219 851.246094 457.046875 850.980469 456.035156 850.664062 C 455.023438 850.347656 454.027344 849.984375 453.050781 849.570312 C 452.070312 849.160156 451.117188 848.699219 450.183594 848.195312 C 449.25 847.691406 448.34375 847.140625 447.460938 846.550781 C 446.582031 845.957031 445.730469 845.324219 444.914062 844.648438 C 444.09375 843.972656 443.308594 843.261719 442.558594 842.511719 C 441.808594 841.761719 441.09375 840.976562 440.421875 840.15625 C 439.746094 839.339844 439.113281 838.488281 438.519531 837.609375 C 437.929688 836.726562 437.378906 835.820312 436.875 834.886719 C 436.371094 833.953125 435.910156 833 435.5 832.019531 C 435.085938 831.042969 434.722656 830.046875 434.40625 829.035156 C 434.089844 828.023438 433.820312 826.996094 433.605469 825.957031 C 433.386719 824.917969 433.222656 823.871094 433.105469 822.816406 C 432.988281 821.761719 432.925781 820.703125 432.910156 819.644531 L 432.910156 602.867188 C 432.910156 601.800781 432.960938 600.738281 433.066406 599.679688 C 433.171875 598.617188 433.328125 597.566406 433.535156 596.523438 C 433.742188 595.476562 434 594.445312 434.308594 593.425781 C 434.621094 592.40625 434.976562 591.40625 435.386719 590.421875 C 435.792969 589.4375 436.246094 588.476562 436.75 587.535156 C 437.25 586.597656 437.796875 585.683594 438.390625 584.800781 C 438.980469 583.914062 439.617188 583.058594 440.292969 582.238281 C 440.964844 581.414062 441.679688 580.625 442.433594 579.871094 C 443.1875 579.121094 443.976562 578.40625 444.796875 577.730469 C 445.621094 577.054688 446.476562 576.421875 447.363281 575.828125 C 448.246094 575.238281 449.160156 574.691406 450.097656 574.1875 C 451.039062 573.6875 452 573.230469 452.984375 572.824219 C 453.96875 572.417969 454.96875 572.058594 455.988281 571.75 C 457.007812 571.441406 458.039062 571.179688 459.082031 570.972656 C 460.128906 570.765625 461.179688 570.609375 462.238281 570.503906 C 463.300781 570.402344 464.363281 570.347656 465.425781 570.347656 C 466.492188 570.347656 467.554688 570.402344 468.613281 570.503906 C 469.671875 570.609375 470.726562 570.765625 471.769531 570.972656 C 472.816406 571.179688 473.847656 571.441406 474.867188 571.75 C 475.886719 572.058594 476.886719 572.417969 477.871094 572.824219 C 478.855469 573.230469 479.816406 573.6875 480.753906 574.1875 C 481.695312 574.691406 482.605469 575.238281 483.492188 575.828125 C 484.378906 576.421875 485.230469 577.054688 486.054688 577.730469 C 486.878906 578.40625 487.667969 579.121094 488.417969 579.871094 C 489.171875 580.625 489.886719 581.414062 490.5625 582.238281 C 491.238281 583.058594 491.871094 583.914062 492.464844 584.800781 C 493.054688 585.683594 493.601562 586.597656 494.105469 587.535156 C 494.605469 588.476562 495.0625 589.4375 495.46875 590.421875 C 495.875 591.40625 496.234375 592.40625 496.542969 593.425781 C 496.851562 594.445312 497.109375 595.476562 497.320312 596.523438 C 497.527344 597.566406 497.683594 598.617188 497.785156 599.679688 C 497.890625 600.738281 497.945312 601.800781 497.945312 602.867188 L 497.945312 819.644531 C 497.945312 820.707031 497.890625 821.769531 497.785156 822.832031 C 497.683594 823.890625 497.527344 824.941406 497.320312 825.988281 C 497.109375 827.03125 496.851562 828.0625 496.542969 829.082031 C 496.234375 830.101562 495.875 831.101562 495.46875 832.085938 C 495.0625 833.070312 494.605469 834.03125 494.105469 834.972656 C 493.601562 835.910156 493.054688 836.824219 492.464844 837.707031 C 491.871094 838.59375 491.238281 839.449219 490.5625 840.269531 C 489.886719 841.09375 489.171875 841.882812 488.417969 842.636719 C 487.667969 843.390625 486.878906 844.101562 486.054688 844.777344 C 485.230469 845.453125 484.378906 846.089844 483.492188 846.679688 C 482.605469 847.269531 481.695312 847.816406 480.753906 848.320312 C 479.816406 848.820312 478.855469 849.277344 477.871094 849.683594 C 476.886719 850.09375 475.886719 850.449219 474.867188 850.757812 C 473.847656 851.070312 472.816406 851.328125 471.769531 851.535156 C 470.726562 851.742188 469.671875 851.898438 468.613281 852.003906 C 467.554688 852.109375 466.492188 852.160156 465.425781 852.160156 Z M 465.425781 852.160156 " fill-opacity="1" fill-rule="nonzero"/><path fill="#ffffff" d="M 754.609375 852.160156 C 753.546875 852.144531 752.488281 852.082031 751.433594 851.964844 C 750.378906 851.847656 749.332031 851.683594 748.292969 851.464844 C 747.253906 851.246094 746.230469 850.980469 745.21875 850.664062 C 744.203125 850.347656 743.207031 849.984375 742.230469 849.570312 C 741.253906 849.160156 740.296875 848.699219 739.363281 848.195312 C 738.429688 847.691406 737.523438 847.140625 736.644531 846.550781 C 735.761719 845.957031 734.914062 845.324219 734.09375 844.648438 C 733.273438 843.972656 732.488281 843.261719 731.738281 842.511719 C 730.988281 841.761719 730.277344 840.976562 729.601562 840.15625 C 728.929688 839.339844 728.292969 838.488281 727.703125 837.609375 C 727.109375 836.726562 726.5625 835.820312 726.054688 834.886719 C 725.550781 833.953125 725.09375 833 724.679688 832.019531 C 724.269531 831.042969 723.902344 830.046875 723.585938 829.035156 C 723.269531 828.023438 723.003906 826.996094 722.785156 825.957031 C 722.570312 824.917969 722.402344 823.871094 722.285156 822.816406 C 722.171875 821.761719 722.105469 820.703125 722.089844 819.644531 L 722.089844 516.152344 C 722.089844 515.089844 722.144531 514.027344 722.25 512.96875 C 722.351562 511.90625 722.507812 510.855469 722.714844 509.808594 C 722.925781 508.765625 723.183594 507.734375 723.492188 506.714844 C 723.800781 505.695312 724.160156 504.695312 724.566406 503.710938 C 724.972656 502.726562 725.429688 501.765625 725.929688 500.824219 C 726.433594 499.886719 726.980469 498.972656 727.570312 498.089844 C 728.164062 497.203125 728.796875 496.347656 729.472656 495.527344 C 730.148438 494.703125 730.863281 493.914062 731.617188 493.160156 C 732.367188 492.410156 733.15625 491.695312 733.980469 491.019531 C 734.804688 490.34375 735.65625 489.710938 736.542969 489.117188 C 737.429688 488.527344 738.339844 487.980469 739.28125 487.476562 C 740.21875 486.976562 741.179688 486.519531 742.164062 486.113281 C 743.148438 485.707031 744.148438 485.347656 745.167969 485.039062 C 746.1875 484.730469 747.21875 484.46875 748.265625 484.261719 C 749.308594 484.054688 750.359375 483.898438 751.421875 483.792969 C 752.480469 483.691406 753.542969 483.636719 754.609375 483.636719 C 755.671875 483.636719 756.734375 483.691406 757.796875 483.792969 C 758.855469 483.898438 759.90625 484.054688 760.953125 484.261719 C 761.996094 484.46875 763.027344 484.730469 764.046875 485.039062 C 765.066406 485.347656 766.066406 485.707031 767.050781 486.113281 C 768.035156 486.519531 768.996094 486.976562 769.9375 487.476562 C 770.875 487.980469 771.789062 488.527344 772.671875 489.117188 C 773.558594 489.710938 774.414062 490.34375 775.238281 491.019531 C 776.058594 491.695312 776.847656 492.410156 777.601562 493.160156 C 778.355469 493.914062 779.070312 494.703125 779.742188 495.527344 C 780.417969 496.347656 781.054688 497.203125 781.644531 498.089844 C 782.238281 498.972656 782.785156 499.886719 783.285156 500.824219 C 783.789062 501.765625 784.242188 502.726562 784.648438 503.710938 C 785.058594 504.695312 785.414062 505.695312 785.726562 506.714844 C 786.035156 507.734375 786.292969 508.765625 786.5 509.808594 C 786.707031 510.855469 786.863281 511.90625 786.96875 512.96875 C 787.074219 514.027344 787.125 515.089844 787.125 516.152344 L 787.125 819.644531 C 787.109375 820.703125 787.046875 821.761719 786.929688 822.816406 C 786.8125 823.871094 786.648438 824.917969 786.429688 825.957031 C 786.210938 826.996094 785.945312 828.023438 785.628906 829.035156 C 785.3125 830.046875 784.949219 831.042969 784.535156 832.019531 C 784.125 833 783.664062 833.953125 783.160156 834.886719 C 782.65625 835.820312 782.105469 836.726562 781.515625 837.609375 C 780.921875 838.488281 780.289062 839.339844 779.613281 840.15625 C 778.941406 840.976562 778.226562 841.761719 777.476562 842.511719 C 776.726562 843.261719 775.941406 843.972656 775.121094 844.648438 C 774.304688 845.324219 773.453125 845.957031 772.574219 846.550781 C 771.691406 847.140625 770.785156 847.691406 769.851562 848.195312 C 768.917969 848.699219 767.964844 849.160156 766.984375 849.570312 C 766.007812 849.984375 765.011719 850.347656 764 850.664062 C 762.988281 850.980469 761.960938 851.246094 760.921875 851.464844 C 759.882812 851.683594 758.835938 851.847656 757.78125 851.964844 C 756.726562 852.082031 755.667969 852.144531 754.609375 852.160156 Z M 754.609375 852.160156 " fill-opacity="1" fill-rule="nonzero"/><path fill="#ffffff" d="M 321.054688 570.347656 C 318.527344 570.367188 316.03125 570.089844 313.570312 569.515625 C 311.109375 568.945312 308.746094 568.09375 306.488281 566.960938 C 304.226562 565.832031 302.128906 564.453125 300.195312 562.828125 C 298.261719 561.203125 296.542969 559.375 295.039062 557.34375 C 294.480469 556.507812 293.960938 555.652344 293.480469 554.769531 C 293.003906 553.890625 292.566406 552.988281 292.167969 552.066406 C 291.773438 551.144531 291.421875 550.207031 291.109375 549.253906 C 290.800781 548.300781 290.535156 547.332031 290.316406 546.355469 C 290.097656 545.375 289.921875 544.390625 289.792969 543.394531 C 289.664062 542.398438 289.582031 541.402344 289.546875 540.398438 C 289.511719 539.398438 289.519531 538.394531 289.578125 537.394531 C 289.632812 536.390625 289.738281 535.394531 289.886719 534.402344 C 290.035156 533.410156 290.230469 532.429688 290.46875 531.453125 C 290.707031 530.480469 290.992188 529.519531 291.320312 528.574219 C 291.648438 527.625 292.023438 526.695312 292.4375 525.78125 C 292.851562 524.867188 293.308594 523.976562 293.804688 523.105469 C 294.300781 522.234375 294.839844 521.386719 295.414062 520.566406 C 295.988281 519.746094 296.601562 518.953125 297.25 518.1875 C 297.898438 517.421875 298.582031 516.6875 299.300781 515.988281 C 300.015625 515.285156 300.765625 514.617188 301.542969 513.988281 L 474.964844 383.917969 C 475.753906 383.320312 476.566406 382.757812 477.402344 382.234375 C 478.242188 381.707031 479.101562 381.21875 479.984375 380.773438 C 480.867188 380.324219 481.765625 379.914062 482.683594 379.546875 C 483.601562 379.179688 484.535156 378.855469 485.484375 378.574219 C 486.433594 378.289062 487.390625 378.050781 488.363281 377.851562 C 489.332031 377.65625 490.308594 377.503906 491.289062 377.394531 C 492.273438 377.285156 493.261719 377.222656 494.25 377.203125 C 495.238281 377.183594 496.226562 377.207031 497.214844 377.277344 C 498.199219 377.34375 499.183594 377.457031 500.160156 377.617188 C 501.136719 377.773438 502.105469 377.972656 503.0625 378.21875 C 504.019531 378.464844 504.96875 378.75 505.898438 379.082031 C 506.832031 379.410156 507.75 379.78125 508.648438 380.195312 C 509.546875 380.605469 510.425781 381.058594 511.285156 381.550781 C 512.144531 382.042969 512.976562 382.570312 513.789062 383.136719 C 514.601562 383.703125 515.382812 384.308594 516.140625 384.945312 C 516.898438 385.582031 517.625 386.25 518.320312 386.953125 L 584.222656 451.121094 L 735.097656 338.394531 C 735.949219 337.757812 736.832031 337.160156 737.742188 336.609375 C 738.652344 336.058594 739.585938 335.550781 740.546875 335.089844 C 741.507812 334.628906 742.488281 334.21875 743.488281 333.851562 C 744.492188 333.488281 745.507812 333.175781 746.539062 332.910156 C 747.570312 332.644531 748.613281 332.433594 749.664062 332.269531 C 750.71875 332.109375 751.773438 332 752.839844 331.941406 C 753.902344 331.882812 754.964844 331.878906 756.03125 331.925781 C 757.09375 331.972656 758.152344 332.070312 759.207031 332.21875 C 760.261719 332.371094 761.304688 332.574219 762.339844 332.824219 C 763.375 333.078125 764.394531 333.382812 765.398438 333.734375 C 766.402344 334.089844 767.386719 334.492188 768.351562 334.941406 C 769.316406 335.390625 770.257812 335.886719 771.175781 336.429688 C 772.089844 336.972656 772.980469 337.558594 773.839844 338.1875 C 774.695312 338.820312 775.523438 339.488281 776.316406 340.199219 C 777.109375 340.910156 777.863281 341.660156 778.585938 342.445312 C 779.304688 343.230469 779.984375 344.046875 780.621094 344.898438 C 781.261719 345.75 781.855469 346.632812 782.410156 347.542969 C 782.960938 348.453125 783.46875 349.390625 783.929688 350.347656 C 784.386719 351.308594 784.800781 352.289062 785.164062 353.292969 C 785.527344 354.292969 785.84375 355.308594 786.109375 356.339844 C 786.371094 357.371094 786.585938 358.414062 786.746094 359.464844 C 786.910156 360.519531 787.019531 361.578125 787.078125 362.640625 C 787.132812 363.703125 787.140625 364.765625 787.09375 365.832031 C 787.046875 366.894531 786.949219 367.953125 786.796875 369.007812 C 786.648438 370.0625 786.445312 371.105469 786.191406 372.140625 C 785.9375 373.175781 785.636719 374.195312 785.28125 375.199219 C 784.929688 376.203125 784.527344 377.1875 784.078125 378.15625 C 783.628906 379.121094 783.128906 380.058594 782.589844 380.976562 C 782.046875 381.894531 781.460938 382.78125 780.828125 383.640625 C 780.199219 384.5 779.527344 385.324219 778.816406 386.117188 C 778.105469 386.910156 777.359375 387.667969 776.574219 388.386719 C 775.789062 389.105469 774.96875 389.785156 774.117188 390.421875 L 600.695312 520.488281 C 599.910156 521.089844 599.097656 521.652344 598.257812 522.175781 C 597.417969 522.703125 596.558594 523.191406 595.675781 523.636719 C 594.796875 524.085938 593.894531 524.492188 592.976562 524.859375 C 592.058594 525.226562 591.125 525.554688 590.175781 525.835938 C 589.226562 526.121094 588.269531 526.359375 587.300781 526.554688 C 586.328125 526.753906 585.351562 526.90625 584.371094 527.015625 C 583.386719 527.125 582.398438 527.1875 581.410156 527.207031 C 580.421875 527.226562 579.433594 527.203125 578.445312 527.132812 C 577.460938 527.066406 576.476562 526.953125 575.5 526.792969 C 574.523438 526.636719 573.558594 526.433594 572.597656 526.191406 C 571.640625 525.945312 570.695312 525.660156 569.761719 525.328125 C 568.828125 525 567.914062 524.628906 567.011719 524.214844 C 566.113281 523.804688 565.234375 523.351562 564.375 522.859375 C 563.515625 522.367188 562.683594 521.839844 561.871094 521.273438 C 561.0625 520.703125 560.277344 520.101562 559.519531 519.464844 C 558.761719 518.828125 558.035156 518.15625 557.339844 517.453125 L 491.441406 451.121094 L 340.5625 563.84375 C 337.742188 565.941406 334.664062 567.546875 331.328125 568.65625 C 327.992188 569.769531 324.566406 570.332031 321.054688 570.347656 Z M 321.054688 570.347656 " fill-opacity="1" fill-rule="nonzero"/></svg>