<svg xmlns="http://www.w3.org/2000/svg" xmlns:xlink="http://www.w3.org/1999/xlink" width="1440" zoomAndPan="magnify" viewBox="0 0 1080 1079.999946" height="1440" preserveAspectRatio="xMidYMid meet" version="1.0"><path fill="#ffffff" d="M 943.523438 564.605469 C 1015.382812 585.703125 1003.066406 637.859375 1002.851562 672.824219 L 823.578125 672.824219 C 817.128906 651.664062 801.210938 631.898438 763.179688 620.789062 L 751.152344 617.191406 C 700.832031 602.558594 673.898438 594.652344 666.847656 578.792969 C 665.132812 573.078125 665.652344 566.734375 682.429688 560.636719 C 736.351562 544.945312 763.667969 536.734375 770.121094 516.539062 L 773.523438 516.539062 C 772.601562 515.726562 771.714844 514.929688 770.871094 513.964844 C 744.226562 488.269531 723.878906 438.132812 723.878906 397.652344 C 723.878906 340.410156 767.699219 302.792969 809.160156 302.792969 C 850.609375 302.792969 892.316406 343.425781 892.316406 400.746094 C 892.316406 441.230469 869.667969 489.785156 841.859375 514.621094 C 847.589844 537.988281 878.847656 545.636719 943.523438 564.605469 Z M 943.523438 564.605469 " fill-opacity="1" fill-rule="nonzero"/><path fill="#ffffff" d="M 819.734375 804.351562 L 262.816406 804.351562 C 262.476562 798.773438 262.125 793.195312 261.453125 786.625 C 259.734375 764.621094 258.019531 741.972656 264.179688 721.273438 C 271.703125 696.988281 291.207031 675.644531 336.347656 662.496094 L 353.800781 656.921875 C 433.152344 634.257812 475.582031 621.464844 489.601562 591.570312 L 494.058594 584.046875 L 493.722656 574.515625 C 492.695312 573.859375 492.019531 573.214844 490.640625 571.558594 C 485.847656 566.640625 481.066406 561.707031 476.605469 555.824219 C 445.824219 516.722656 423.929688 456.320312 423.929688 406.433594 C 423.929688 342.707031 471.152344 275.074219 541.605469 275.074219 C 596.6875 275.074219 655.878906 329.589844 655.878906 411.011719 C 655.878906 462.910156 628.847656 527.234375 591.90625 565.003906 C 589.5 567.652344 586.773438 569.921875 584.382812 572.234375 L 579.941406 576.1875 L 581.304688 582.117188 C 590.878906 619.519531 633.980469 632.328125 720.523438 656.953125 L 738.3125 662.527344 C 783.128906 675.675781 804.335938 697.355469 813.574219 721.304688 L 813.910156 721.304688 C 822.476562 744.609375 821.433594 769.921875 820.40625 793.550781 C 820.070312 797.121094 820.070312 801.058594 819.734375 804.351562 Z M 819.734375 804.351562 " fill-opacity="1" fill-rule="nonzero"/><path fill="#ffffff" d="M 137.539062 564.605469 C 65.617188 585.703125 78.027344 637.859375 78.210938 672.824219 L 257.421875 672.824219 C 263.917969 651.664062 279.777344 631.898438 317.882812 620.789062 L 329.867188 617.191406 C 380.230469 602.558594 407.183594 594.652344 414.183594 578.792969 C 412.269531 572.496094 415.746094 563.054688 398.570312 560.636719 C 344.683594 544.945312 317.363281 536.734375 310.925781 516.539062 L 307.554688 516.539062 C 308.460938 515.726562 309.378906 514.929688 310.191406 513.964844 C 336.835938 488.269531 357.199219 438.132812 357.199219 397.652344 C 357.199219 340.410156 313.394531 302.792969 271.917969 302.792969 C 230.425781 302.792969 188.761719 343.425781 188.761719 400.746094 C 188.761719 441.230469 211.316406 489.785156 239.128906 514.621094 C 233.425781 537.988281 202.125 545.636719 137.539062 564.605469 Z M 137.539062 564.605469 " fill-opacity="1" fill-rule="nonzero"/></svg>